<mxfile host="app.diagrams.net" agent="Mozilla/5.0 (Windows NT 10.0; Win64; x64) AppleWebKit/537.36 (KHTML, like Gecko) Chrome/134.0.0.0 Safari/537.36" version="26.2.2">
  <diagram name="Page-1" id="ZHsyAl0jGuj9G-x1fjYM">
    <mxGraphModel dx="3170" dy="71" grid="1" gridSize="10" guides="1" tooltips="1" connect="1" arrows="1" fold="1" page="1" pageScale="1" pageWidth="850" pageHeight="1100" math="0" shadow="0">
      <root>
        <mxCell id="0" />
        <mxCell id="1" parent="0" />
        <mxCell id="XzbO5QDzBOOLL6vlYLCf-1" value="" style="rounded=0;whiteSpace=wrap;html=1;movable=0;resizable=0;rotatable=0;deletable=0;editable=0;locked=1;connectable=0;" vertex="1" parent="1">
          <mxGeometry x="-690" y="1410" width="1358" height="460" as="geometry" />
        </mxCell>
        <mxCell id="XzbO5QDzBOOLL6vlYLCf-2" value="&lt;font style=&quot;font-size: 18px;&quot;&gt;Developer&lt;/font&gt;" style="verticalLabelPosition=bottom;html=1;verticalAlign=top;align=center;strokeColor=none;fillColor=#00BEF2;shape=mxgraph.azure.user;movable=0;resizable=0;rotatable=0;deletable=0;editable=0;locked=1;connectable=0;" vertex="1" parent="1">
          <mxGeometry x="-540" y="1628.25" width="47.5" height="50" as="geometry" />
        </mxCell>
        <mxCell id="XzbO5QDzBOOLL6vlYLCf-3" value="EKS" style="points=[[0,0],[0.25,0],[0.5,0],[0.75,0],[1,0],[1,0.25],[1,0.5],[1,0.75],[1,1],[0.75,1],[0.5,1],[0.25,1],[0,1],[0,0.75],[0,0.5],[0,0.25]];outlineConnect=0;gradientColor=none;html=1;whiteSpace=wrap;fontSize=12;fontStyle=0;container=1;pointerEvents=0;collapsible=0;recursiveResize=0;shape=mxgraph.aws4.group;grIcon=mxgraph.aws4.group_ec2_instance_contents;strokeColor=#D86613;fillColor=none;verticalAlign=top;align=left;spacingLeft=30;fontColor=#D86613;movable=0;resizable=0;rotatable=0;deletable=0;editable=0;locked=1;connectable=0;" vertex="1" parent="1">
          <mxGeometry x="335" y="1538.25" width="220" height="230" as="geometry" />
        </mxCell>
        <mxCell id="XzbO5QDzBOOLL6vlYLCf-4" value="" style="sketch=0;points=[[0,0,0],[0.25,0,0],[0.5,0,0],[0.75,0,0],[1,0,0],[0,1,0],[0.25,1,0],[0.5,1,0],[0.75,1,0],[1,1,0],[0,0.25,0],[0,0.5,0],[0,0.75,0],[1,0.25,0],[1,0.5,0],[1,0.75,0]];outlineConnect=0;fontColor=#232F3E;fillColor=#ED7100;strokeColor=#ffffff;dashed=0;verticalLabelPosition=bottom;verticalAlign=top;align=center;html=1;fontSize=12;fontStyle=0;aspect=fixed;shape=mxgraph.aws4.resourceIcon;resIcon=mxgraph.aws4.ecs;movable=0;resizable=0;rotatable=0;deletable=0;editable=0;locked=1;connectable=0;" vertex="1" parent="XzbO5QDzBOOLL6vlYLCf-3">
          <mxGeometry width="30" height="30" as="geometry" />
        </mxCell>
        <mxCell id="XzbO5QDzBOOLL6vlYLCf-5" value="Frontend" style="sketch=0;points=[[0,0,0],[0.25,0,0],[0.5,0,0],[0.75,0,0],[1,0,0],[0,1,0],[0.25,1,0],[0.5,1,0],[0.75,1,0],[1,1,0],[0,0.25,0],[0,0.5,0],[0,0.75,0],[1,0.25,0],[1,0.5,0],[1,0.75,0]];outlineConnect=0;fontColor=#232F3E;fillColor=#ED7100;strokeColor=#ffffff;dashed=0;verticalLabelPosition=bottom;verticalAlign=top;align=center;html=1;fontSize=12;fontStyle=0;aspect=fixed;shape=mxgraph.aws4.resourceIcon;resIcon=mxgraph.aws4.ecs;movable=0;resizable=0;rotatable=0;deletable=0;editable=0;locked=1;connectable=0;" vertex="1" parent="XzbO5QDzBOOLL6vlYLCf-3">
          <mxGeometry x="85" y="20" width="50" height="50" as="geometry" />
        </mxCell>
        <mxCell id="XzbO5QDzBOOLL6vlYLCf-6" value="" style="aspect=fixed;sketch=0;html=1;dashed=0;whitespace=wrap;verticalLabelPosition=bottom;verticalAlign=top;fillColor=#2875E2;strokeColor=#ffffff;points=[[0.005,0.63,0],[0.1,0.2,0],[0.9,0.2,0],[0.5,0,0],[0.995,0.63,0],[0.72,0.99,0],[0.5,1,0],[0.28,0.99,0]];shape=mxgraph.kubernetes.icon2;prIcon=node;movable=0;resizable=0;rotatable=0;deletable=0;editable=0;locked=1;connectable=0;" vertex="1" parent="XzbO5QDzBOOLL6vlYLCf-3">
          <mxGeometry x="89.69000000000005" y="25.5" width="40.62" height="39" as="geometry" />
        </mxCell>
        <mxCell id="XzbO5QDzBOOLL6vlYLCf-7" value="Backend" style="sketch=0;points=[[0,0,0],[0.25,0,0],[0.5,0,0],[0.75,0,0],[1,0,0],[0,1,0],[0.25,1,0],[0.5,1,0],[0.75,1,0],[1,1,0],[0,0.25,0],[0,0.5,0],[0,0.75,0],[1,0.25,0],[1,0.5,0],[1,0.75,0]];outlineConnect=0;fontColor=#232F3E;fillColor=#ED7100;strokeColor=#ffffff;dashed=0;verticalLabelPosition=bottom;verticalAlign=top;align=center;html=1;fontSize=12;fontStyle=0;aspect=fixed;shape=mxgraph.aws4.resourceIcon;resIcon=mxgraph.aws4.ecs;movable=0;resizable=0;rotatable=0;deletable=0;editable=0;locked=1;connectable=0;" vertex="1" parent="XzbO5QDzBOOLL6vlYLCf-3">
          <mxGeometry x="85" y="140" width="50" height="50" as="geometry" />
        </mxCell>
        <mxCell id="XzbO5QDzBOOLL6vlYLCf-8" value="" style="aspect=fixed;sketch=0;html=1;dashed=0;whitespace=wrap;verticalLabelPosition=bottom;verticalAlign=top;fillColor=#2875E2;strokeColor=#ffffff;points=[[0.005,0.63,0],[0.1,0.2,0],[0.9,0.2,0],[0.5,0,0],[0.995,0.63,0],[0.72,0.99,0],[0.5,1,0],[0.28,0.99,0]];shape=mxgraph.kubernetes.icon2;prIcon=node;movable=0;resizable=0;rotatable=0;deletable=0;editable=0;locked=1;connectable=0;" vertex="1" parent="XzbO5QDzBOOLL6vlYLCf-3">
          <mxGeometry x="89.69000000000005" y="145.5" width="40.62" height="39" as="geometry" />
        </mxCell>
        <mxCell id="XzbO5QDzBOOLL6vlYLCf-9" value="ArgoCD" style="text;html=1;align=center;verticalAlign=middle;whiteSpace=wrap;rounded=0;fontSize=31;fontStyle=1;movable=0;resizable=0;rotatable=0;deletable=0;editable=0;locked=1;connectable=0;" vertex="1" parent="1">
          <mxGeometry x="-622" y="1440" width="249" height="70" as="geometry" />
        </mxCell>
        <mxCell id="XzbO5QDzBOOLL6vlYLCf-10" value="&lt;font style=&quot;font-size: 18px;&quot;&gt;Git&lt;/font&gt;" style="verticalLabelPosition=bottom;html=1;verticalAlign=top;align=center;strokeColor=none;fillColor=#00BEF2;shape=mxgraph.azure.git_repository;movable=0;resizable=0;rotatable=0;deletable=0;editable=0;locked=1;connectable=0;" vertex="1" parent="1">
          <mxGeometry x="-302" y="1622.25" width="60" height="60" as="geometry" />
        </mxCell>
        <mxCell id="XzbO5QDzBOOLL6vlYLCf-11" style="edgeStyle=orthogonalEdgeStyle;rounded=0;orthogonalLoop=1;jettySize=auto;html=1;entryX=0;entryY=0.5;entryDx=0;entryDy=0;entryPerimeter=0;movable=0;resizable=0;rotatable=0;deletable=0;editable=0;locked=1;connectable=0;" edge="1" parent="1" source="XzbO5QDzBOOLL6vlYLCf-2" target="XzbO5QDzBOOLL6vlYLCf-10">
          <mxGeometry relative="1" as="geometry" />
        </mxCell>
        <mxCell id="XzbO5QDzBOOLL6vlYLCf-12" value="&lt;font style=&quot;font-size: 18px;&quot;&gt;Commit&lt;/font&gt;" style="edgeLabel;html=1;align=center;verticalAlign=middle;resizable=0;points=[];movable=0;rotatable=0;deletable=0;editable=0;locked=1;connectable=0;" vertex="1" connectable="0" parent="XzbO5QDzBOOLL6vlYLCf-11">
          <mxGeometry x="0.0848" relative="1" as="geometry">
            <mxPoint as="offset" />
          </mxGeometry>
        </mxCell>
        <mxCell id="XzbO5QDzBOOLL6vlYLCf-13" style="edgeStyle=orthogonalEdgeStyle;rounded=0;orthogonalLoop=1;jettySize=auto;html=1;movable=0;resizable=0;rotatable=0;deletable=0;editable=0;locked=1;connectable=0;" edge="1" parent="1" source="XzbO5QDzBOOLL6vlYLCf-15" target="XzbO5QDzBOOLL6vlYLCf-3">
          <mxGeometry relative="1" as="geometry" />
        </mxCell>
        <mxCell id="XzbO5QDzBOOLL6vlYLCf-14" value="&lt;font style=&quot;font-size: 18px;&quot;&gt;Sync Cluster Status&lt;/font&gt;" style="edgeLabel;html=1;align=center;verticalAlign=middle;resizable=0;points=[];movable=0;rotatable=0;deletable=0;editable=0;locked=1;connectable=0;" vertex="1" connectable="0" parent="XzbO5QDzBOOLL6vlYLCf-13">
          <mxGeometry x="-0.0743" y="2" relative="1" as="geometry">
            <mxPoint as="offset" />
          </mxGeometry>
        </mxCell>
        <mxCell id="XzbO5QDzBOOLL6vlYLCf-15" value="ArgoCD" style="shape=image;imageAspect=0;aspect=fixed;verticalLabelPosition=bottom;verticalAlign=top;image=data:image/svg+xml,PHN2ZyB4bWxucz0iaHR0cDovL3d3dy53My5vcmcvMjAwMC9zdmciIHZpZXdCb3g9IjUuMzIyNTQ0MDk3OTAwMzkxIDAgMzcuMzUzOTA4NTM4ODE4MzYgNDguMDAxMjQzNTkxMzA4NTk0IiB3aWR0aD0iMzcuMzUzOTA4NTM4ODE4MzYiIGhlaWdodD0iNDguMDAxMjQzNTkxMzA4NTk0Ij48ZGVmcyBpZD0iZGVmczIxOTUiPjxjbGlwUGF0aCBpZD0iY2xpcC1wYXRoIj48cGF0aCBzdHlsZT0iZmlsbDpub25lIiBkPSJtMjQxLjAxOSAxMTUuNjg3LTcuMTczIDE2My43OTJIMTI2LjI0NWwtNS45NzgtMTYzLjc5MiIgaWQ9InBvbHlsaW5lMjE5MiIvPjwvY2xpcFBhdGg+PHN0eWxlIGlkPSJzdHlsZTIxOTAiPi5jbHMtMntmaWxsOiNlOTY1NGJ9LmNscy0ze2ZpbGw6I2I2Y2ZlYX0uY2xzLTZ7ZmlsbDojZWU3OTRifS5jbHMtMTJ7ZmlsbDojMDEwMTAxfS5jbHMtMTN7ZmlsbDojZmZmfTwvc3R5bGU+PC9kZWZzPjxnIHRyYW5zZm9ybT0idHJhbnNsYXRlKC0zNy4yMjMgLTQuNSkiIGlkPSJnMjQwOSI+PHBhdGggc3R5bGU9InN0cm9rZS13aWR0aDouMTM3MDI1IiBjbGFzcz0iY2xzLTIiIGQ9Ik01My42ODcgMzguNDExcy0uMzI4Ljk4My0uODIgMS40NzVhMS40ODcgMS40ODcgMCAwIDEtMS4xNDYuNDkxIDE4Ljk5MyAxOC45OTMgMCAwIDEtMi40NTcuNDkyczEuMTQ2LjE2MyAyLjQ1Ny4zMjdjLjQ5MSAwIC40OTEgMCAuODIuMTY0LjgxOCAwIDEuMTQ2LS40OTEgMS4xNDYtLjQ5MXoiIGlkPSJwYXRoMjE5OSIvPjxwYXRoIHN0eWxlPSJzdHJva2Utd2lkdGg6LjEzNzAyNSIgY2xhc3M9ImNscy0yIiBkPSJNNjguNzU5IDM4LjQxMXMuMzI3Ljk4My44MTkgMS40NzVhMS40ODcgMS40ODcgMCAwIDAgMS4xNDYuNDkxIDE4Ljk5MyAxOC45OTMgMCAwIDAgMi40NTguNDkycy0xLjE0Ny4xNjMtMi42MjEuMzI3Yy0uNDkyIDAtLjQ5MiAwLS44Mi4xNjQtLjk4MiAwLTEuMTQ2LS40OTEtMS4xNDYtLjQ5MXoiIGlkPSJwYXRoMjIwMSIvPjxjaXJjbGUgc3R5bGU9InN0cm9rZS13aWR0aDouMTM3MDI1IiBjbGFzcz0iY2xzLTMiIHI9IjE3LjY5MyIgY3k9IjIyLjE5MyIgY3g9IjYxLjM4NyIgaWQ9ImNpcmNsZTIyMDMiLz48Y2lyY2xlIHN0eWxlPSJzdHJva2Utd2lkdGg6LjEzNzAyNTtmaWxsOiNlNmY1ZjgiIHI9IjE3LjAzOCIgY3k9IjIyLjE5MyIgY3g9IjYxLjM4NyIgaWQ9ImNpcmNsZTIyMDUiLz48Y2lyY2xlIHN0eWxlPSJzdHJva2Utd2lkdGg6LjEzNzAyNTtmaWxsOiNkMGU4ZjAiIHI9IjEzLjkyNSIgY3k9IjIyLjUyIiBjeD0iNjEuMzg3IiBpZD0iY2lyY2xlMjIwNyIvPjxnIHRyYW5zZm9ybT0idHJhbnNsYXRlKDM2LjcxNiAzLjg4Mykgc2NhbGUoLjEzNzAzKSIgaWQ9IkJvZHkiPjxwYXRoIGNsYXNzPSJjbHMtNiIgZD0iTTEyMC4yNjcgMTgzLjgzNHM4LjM3IDEzNS4xIDguMzcgMTM3LjQ5YzAgMS4xOTYgMS4xOTUgMy41ODctNC43ODMgNS45NzgtNS45NzggMi4zOTEtMjUuMTA3IDcuMTczLTI1LjEwNyA3LjE3M2gyOC42OTRjMTMuMTUxIDAgMTMuMTUxLTEwLjc2IDEzLjE1MS0xMy4xNSAwLTIuMzkyIDMuNTg3LTUzLjgwMSAzLjU4Ny01My44MDFzMS4xOTUgNjAuOTc0IDEuMTk1IDYzLjM2NWMwIDIuMzktMS4xOTUgNS45NzgtOS41NjQgOC4zNjlsLTIzLjkxMiA0Ljc4MmgyNy40OThjMTYuNzM4IDAgMTYuNzM4LTEwLjc2IDE2LjczOC0xMC43NmwzLjU4Ny01My44czEuMTk2IDUzLjggMS4xOTYgNTkuNzc4YzAgNC43ODItMy41ODcgOC4zNjktMTYuNzM4IDEwLjc2LTguMzcgMi4zOS0xOS4xMyA0Ljc4Mi0xOS4xMyA0Ljc4MmgzMS4wODVjMTUuNTQzLTEuMTk1IDE3LjkzNC0xMS45NTYgMTcuOTM0LTExLjk1NmwyNi4zMDItMTMzLjkwM3oiIGlkPSJwYXRoMjIwOSIvPjxwYXRoIGNsYXNzPSJjbHMtNiIgZD0iTTIzOS44MjQgMTgzLjgzNHMtOC4zNyAxMzUuMS04LjM3IDEzNy40OWMwIDEuMTk2LTEuMTk1IDMuNTg3IDQuNzgzIDUuOTc4IDUuOTc4IDIuMzkxIDI1LjEwNyA3LjE3MyAyNS4xMDcgNy4xNzNIMjMyLjY1Yy0xMy4xNSAwLTEzLjE1LTEwLjc2LTEzLjE1LTEzLjE1IDAtMi4zOTItMy41ODgtNTMuODAxLTMuNTg4LTUzLjgwMXMtMS4xOTUgNjAuOTc0LTEuMTk1IDYzLjM2NWMwIDIuMzkgMS4xOTUgNS45NzggOS41NjQgOC4zNjlsMjMuOTEyIDQuNzgyaC0yNy40OThjLTE2LjczOCAwLTE2LjczOC0xMC43Ni0xNi43MzgtMTAuNzZsLTMuNTg3LTUzLjhzLTEuMTk1IDUzLjgtMS4xOTUgNTkuNzc4YzAgNC43ODIgMy41ODYgOC4zNjkgMTYuNzM3IDEwLjc2IDguMzcgMi4zOSAxOS4xMyA0Ljc4MiAxOS4xMyA0Ljc4MmgtMzEuMDg1Yy0xNS41NDItMS4xOTUtMTcuOTM0LTExLjk1Ni0xNy45MzQtMTEuOTU2bC0yNi4zMDItMTMzLjkwM1oiIGlkPSJwYXRoMjIxMSIvPjxwYXRoIGNsYXNzPSJjbHMtNiIgZD0iTTI0MS4wMiAxMTguMDc5YzAgMzMuNDc1LTI3LjQ5OSA1OS43NzgtNTkuNzc5IDU5Ljc3OHMtNTkuNzc4LTI3LjQ5OC01OS43NzgtNTkuNzc5YzAtMzIuMjggMjcuNDk4LTU5Ljc3OCA1OS43NzgtNTkuNzc4czU5Ljc3OCAyNi4zMDMgNTkuNzc4IDU5Ljc3OHoiIGlkPSJwYXRoMjIxMyIvPjxnIHN0eWxlPSJjbGlwLXBhdGg6dXJsKCNjbGlwLXBhdGgpIiBjbGlwLXBhdGg9InVybCgjY2xpcC1wYXRoKSIgaWQ9ImcyMjE3Ij48Y2lyY2xlIGNsYXNzPSJjbHMtNiIgcj0iMTA2LjQwNSIgY3k9IjE1MC4zNTkiIGN4PSIxODEuMjQxIiBpZD0iY2lyY2xlMjIxNSIvPjwvZz48ZyBzdHlsZT0ib3BhY2l0eTouMjIiIGlkPSJnMjIyMSI+PHBhdGggc3R5bGU9ImZpbGw6I2UzNGUzYiIgZD0iTTIzNy40MzMgMTgzLjgzNHM3LjE3My02My4zNjQtMi4zOTItODcuMjc2QzIxNy4xMDggNTQuNzE0IDE3NS4yNjMgNTguMyAxNzUuMjYzIDU4LjNzMjMuOTEyIDkuNTY1IDI1LjEwNyA0NS40MzJjMS4xOTYgMjUuMTA3IDAgNjIuMTY5IDAgNjIuMTY5eiIgaWQ9InBhdGgyMjE5Ii8+PC9nPjwvZz48ZyB0cmFuc2Zvcm09InRyYW5zbGF0ZSgzNi43MTYgMy44ODMpIHNjYWxlKC4xMzcwMykiIGlkPSJGYWNlIj48ZyBzdHlsZT0ib3BhY2l0eTouNSIgaWQ9ImcyMjI2Ij48Y2lyY2xlIHN0eWxlPSJmaWxsOiNmYmRmYzMiIHI9IjguMzY5IiBjeT0iODUuNzk4IiBjeD0iMTU2LjEzNCIgaWQ9ImNpcmNsZTIyMjQiLz48L2c+PHBhdGggY2xhc3M9ImNscy0xMiIgZD0iTTIwMS41NjYgMjA3Ljc0NmMwIDIwLjMyNC05LjU2NSAzMy40NzUtMjEuNTIgMzMuNDc1LTExLjk1NiAwLTIxLjUyLTE1LjU0Mi0yMS41Mi0zNS44NjYgMCAwIDkuNTY0IDE5LjEyOSAyMi43MTUgMTkuMTI5czIwLjMyNS0xNi43MzggMjAuMzI1LTE2LjczOHoiIGlkPSJwYXRoMjIyOCIvPjxwYXRoIGNsYXNzPSJjbHMtMTMiIGQ9Ik0yMDEuNTY2IDIwNy43NDZjMCAxMy4xNS05LjU2NSAyMC4zMjQtMjEuNTIgMjAuMzI0LTExLjk1NiAwLTIwLjMyNS05LjU2NC0yMC4zMjUtMjEuNTIgMCAwIDkuNTY1IDExLjk1NiAyMi43MTYgMTEuOTU2IDEzLjE1IDAgMTkuMTI5LTEwLjc2IDE5LjEyOS0xMC43NnoiIGlkPSJwYXRoMjIzMCIvPjxjaXJjbGUgY2xhc3M9ImNscy0yIiByPSIzNy4wNjIiIGN5PSIxNTEuNTU0IiBjeD0iMjIxLjg5IiBpZD0iY2lyY2xlMjIzMiIvPjxjaXJjbGUgY2xhc3M9ImNscy0yIiByPSIzNy4wNjIiIGN5PSIxNTEuNTU0IiBjeD0iMTM4LjIwMSIgaWQ9ImNpcmNsZTIyMzQiLz48Y2lyY2xlIGNsYXNzPSJjbHMtMTMiIHI9IjI4LjY5NCIgY3k9IjE1MS41NTQiIGN4PSIyMjEuODkiIGlkPSJjaXJjbGUyMjM2Ii8+PGNpcmNsZSBjbGFzcz0iY2xzLTEzIiByPSIyOC42OTQiIGN5PSIxNTEuNTU0IiBjeD0iMTM1LjgxIiBpZD0iY2lyY2xlMjIzOCIvPjxjaXJjbGUgY2xhc3M9ImNscy0xMiIgcj0iOC4zNjkiIGN5PSIxNDcuOTY4IiBjeD0iMTM1LjgxIiBpZD0iY2lyY2xlMjI0MCIvPjxjaXJjbGUgY2xhc3M9ImNscy0xMiIgcj0iOC4zNjkiIGN5PSIxNDcuOTY4IiBjeD0iMjIxLjg5IiBpZD0iY2lyY2xlMjI0MiIvPjwvZz48cGF0aCBzdHlsZT0ic3Ryb2tlLXdpZHRoOi4xMzcwMjUiIGNsYXNzPSJjbHMtMyIgZD0iTTQzLjM2NiAyNi42MTZhLjc3NC43NzQgMCAwIDEtLjgxOS0uODJ2LTYuNTUyYS43NzQuNzc0IDAgMCAxIC44Mi0uODIuNzc0Ljc3NCAwIDAgMSAuODE4LjgydjYuNTUzYS43NzQuNzc0IDAgMCAxLS44MTkuODE5eiIgaWQ9InBhdGgyMjQ1Ii8+PHBhdGggc3R5bGU9InN0cm9rZS13aWR0aDouMTM3MDI1IiBjbGFzcz0iY2xzLTMiIGQ9Ik03OS4wOCAyNi42MTZhLjc3NC43NzQgMCAwIDEtLjgyLS44MnYtNi41NTJhLjc3NC43NzQgMCAwIDEgLjgyLS44Mi43NzQuNzc0IDAgMCAxIC44MTguODJ2Ni41NTNhLjc3NC43NzQgMCAwIDEtLjgxOS44MTl6IiBpZD0icGF0aDIyNDciLz48Y2lyY2xlIHN0eWxlPSJzdHJva2Utd2lkdGg6LjEzNzAyNSIgY2xhc3M9ImNscy0xMyIgcj0iLjgxOSIgY3k9IjkuMDg3IiBjeD0iNTUuODE3IiBpZD0iY2lyY2xlMjI0OSIvPjxwYXRoIHN0eWxlPSJzdHJva2Utd2lkdGg6LjEzNzAyNSIgY2xhc3M9ImNscy0xMyIgZD0iTTQ5LjkxOSAzMS4yMDNhLjYwMi42MDIgMCAwIDEtLjQ5MS0uMTY0Yy0xLjk2Ni0yLjQ1Ny0yLjk1LTUuNTctMi45NS04LjY4MmExNC42MTggMTQuNjE4IDAgMCAxIDEuOTY3LTcuMzcyIDE2LjAzMyAxNi4wMzMgMCAwIDEgNS4yNDItNS4yNDMuNzIuNzIgMCAwIDEgLjgxOS4xNjQuNzIuNzIgMCAwIDEtLjE2NC44MiAxMy4yMjIgMTMuMjIyIDAgMCAwLTYuNzE3IDExLjQ2NyAxMi45MSAxMi45MSAwIDAgMCAyLjc4NSA4LjAyN2MuMTY0LjE2NC4xNjQuNjU1LS4xNjMuODItLjE2NC4xNjMtLjE2NC4xNjMtLjMyOC4xNjN6IiBpZD0icGF0aDIyNTEiLz48ZyB0cmFuc2Zvcm09InRyYW5zbGF0ZSgzNi43MTYgMy44ODMpIHNjYWxlKC4xMzcwMykiIHN0eWxlPSJvcGFjaXR5Oi4yNSIgaWQ9ImcyMjU1Ij48cGF0aCBjbGFzcz0iY2xzLTIiIGQ9Ik0yMzMuODQ2IDI1NS41Njh2LTkuNTY0Yy0xNi43MzggOS41NjQtMzQuNjcxIDE5LjEyOS01Ni4xOTIgMTkuMTI5LTIzLjkxIDAtMzkuNDUzLTEwLjc2LTU0Ljk5NS0xOS4xM2wxLjE5NSA5LjU2NXMxNy45MzQgMTkuMTMgNTQuOTk2IDE5LjEzYzM0LjY3MS0xLjE5NiA1NC45OTYtMTkuMTMgNTQuOTk2LTE5LjEzeiIgaWQ9InBhdGgyMjUzIi8+PC9nPjwvZz48L3N2Zz4=;fontSize=15;strokeWidth=1;movable=0;resizable=0;rotatable=0;deletable=0;editable=0;locked=1;connectable=0;" vertex="1" parent="1">
          <mxGeometry x="-57" y="1599.38" width="83.06" height="107.75" as="geometry" />
        </mxCell>
        <mxCell id="XzbO5QDzBOOLL6vlYLCf-16" style="edgeStyle=orthogonalEdgeStyle;rounded=0;orthogonalLoop=1;jettySize=auto;html=1;entryX=1;entryY=0.5;entryDx=0;entryDy=0;entryPerimeter=0;movable=0;resizable=0;rotatable=0;deletable=0;editable=0;locked=1;connectable=0;" edge="1" parent="1" source="XzbO5QDzBOOLL6vlYLCf-15" target="XzbO5QDzBOOLL6vlYLCf-10">
          <mxGeometry relative="1" as="geometry" />
        </mxCell>
        <mxCell id="XzbO5QDzBOOLL6vlYLCf-17" value="&lt;font style=&quot;font-size: 18px;&quot;&gt;Pull changes&lt;/font&gt;" style="edgeLabel;html=1;align=center;verticalAlign=middle;resizable=0;points=[];movable=0;rotatable=0;deletable=0;editable=0;locked=1;connectable=0;" vertex="1" connectable="0" parent="XzbO5QDzBOOLL6vlYLCf-16">
          <mxGeometry x="-0.1043" y="-1" relative="1" as="geometry">
            <mxPoint x="-1" as="offset" />
          </mxGeometry>
        </mxCell>
      </root>
    </mxGraphModel>
  </diagram>
</mxfile>
